<?xml version="1.0" encoding="UTF-8" standalone="no"?>
<!-- Created with Inkscape (http://www.inkscape.org/) -->

<svg
   xmlns:dc="http://purl.org/dc/elements/1.1/"
   xmlns:cc="http://creativecommons.org/ns#"
   xmlns:rdf="http://www.w3.org/1999/02/22-rdf-syntax-ns#"
   xmlns:svg="http://www.w3.org/2000/svg"
   xmlns="http://www.w3.org/2000/svg"
   xmlns:sodipodi="http://sodipodi.sourceforge.net/DTD/sodipodi-0.dtd"
   xmlns:inkscape="http://www.inkscape.org/namespaces/inkscape"
   width="301.10376"
   height="43.472656"
   viewBox="0 0 79.667035 11.502141"
   version="1.1"
   id="svg8"
   inkscape:version="0.92pre4 15278"
   sodipodi:docname="header.svg">
  <defs
     id="defs2" />
  <sodipodi:namedview
     id="base"
     pagecolor="#ffffff"
     bordercolor="#666666"
     borderopacity="1.0"
     inkscape:pageopacity="0.0"
     inkscape:pageshadow="2"
     inkscape:zoom="1.4"
     inkscape:cx="122.176"
     inkscape:cy="11.922739"
     inkscape:document-units="mm"
     inkscape:current-layer="layer1"
     showgrid="false"
     fit-margin-top="2"
     fit-margin-left="2"
     fit-margin-right="2"
     fit-margin-bottom="2"
     units="px"
     inkscape:window-width="1600"
     inkscape:window-height="877"
     inkscape:window-x="-8"
     inkscape:window-y="-8"
     inkscape:window-maximized="1" />
  <metadata
     id="metadata5">
    <rdf:RDF>
      <cc:Work
         rdf:about="">
        <dc:format>image/svg+xml</dc:format>
        <dc:type
           rdf:resource="http://purl.org/dc/dcmitype/StillImage" />
        <dc:title />
      </cc:Work>
    </rdf:RDF>
  </metadata>
  <g
     inkscape:label="Layer 1"
     inkscape:groupmode="layer"
     id="layer1"
     transform="translate(-14.333505,-9.4778475)">
    <g
       aria-label="Austin J. Martin"
       style="font-style:normal;font-variant:normal;font-weight:normal;font-stretch:normal;font-size:10.58333302px;line-height:6.61458302px;font-family:Calibri;-inkscape-font-specification:Calibri;letter-spacing:0px;word-spacing:0px;fill:#000000;fill-opacity:1;stroke:none;stroke-width:0.26458332px;stroke-linecap:butt;stroke-linejoin:miter;stroke-opacity:1"
       id="text4491">
      <path
         d="m 19.14148,10.76149 h 1.410767 l 1.291911,7.245036 0.816487,0.165364 -0.03101,0.496094 h -3.043741 l 0.03101,-0.496094 0.754475,-0.149861 -0.232544,-1.555461 h -2.744018 l -0.702799,1.550293 0.868164,0.155029 -0.03617,0.496094 h -2.661336 l 0.04651,-0.496094 0.718302,-0.149861 z m 0.894003,5.002279 -0.475424,-3.178101 -0.05168,-0.790649 -1.79834,3.96875 z"
         style="font-style:italic;font-variant:normal;font-weight:normal;font-stretch:normal;font-size:10.58333302px;font-family:'Brush Lettering One';-inkscape-font-specification:'Brush Lettering One, Italic';font-variant-ligatures:normal;font-variant-caps:normal;font-variant-numeric:normal;font-feature-settings:normal;text-align:start;writing-mode:lr-tb;text-anchor:start;stroke-width:0.26458332px"
         id="path10788" />
      <path
         d="m 28.706788,12.776871 -0.05684,0.428914 -0.0052,0.03101 -0.563273,4.190959 q -0.02584,0.268717 0.0052,0.37207 0.03101,0.103353 0.165364,0.113688 0.06718,0.0052 0.124024,-0.0155 0.06201,-0.02067 0.09302,-0.03617 -0.04134,0.289388 -0.206706,0.537435 -0.160197,0.242879 -0.475423,0.361735 -0.149861,0.03101 -0.258382,0.03101 -0.103353,0 -0.160197,0 -0.05168,0 -0.191203,-0.02584 -0.134358,-0.02584 -0.289388,-0.09302 -0.155029,-0.06718 -0.294555,-0.180868 -0.134359,-0.118856 -0.186035,-0.304891 l -0.0155,-0.09302 q -0.201538,0.237711 -0.454753,0.382405 -0.253214,0.144694 -0.501261,0.222209 -0.24288,0.07752 -0.454753,0.09302 -0.211873,0.02067 -0.335897,0.0052 -0.351399,-0.04651 -0.594279,-0.144694 -0.242879,-0.103353 -0.397908,-0.242879 -0.155029,-0.139527 -0.237712,-0.310059 -0.07751,-0.170532 -0.113688,-0.346232 -0.03101,-0.180867 -0.03101,-0.361735 0,-0.180867 0.0155,-0.346232 l 0.475423,-3.26595 q 0.0052,-0.03101 0.0052,-0.05684 0,-0.02584 0.0052,-0.04134 0,-0.02067 0.0052,-0.03617 0,-0.0052 0.0052,-0.0052 0.0155,-0.08268 0.07752,-0.165364 0.06201,-0.08785 0.160196,-0.170533 0.103353,-0.08268 0.232544,-0.155029 0.134359,-0.07751 0.284221,-0.139526 0.09302,-0.04134 0.201538,-0.08268 0.10852,-0.04651 0.217041,-0.08785 0.10852,-0.04134 0.206706,-0.07235 0.103352,-0.03101 0.180867,-0.04651 0.08268,-0.0155 0.129191,-0.0052 0.05168,0.0052 0.05684,0.04134 0,0.02067 0,0.02067 l -0.134358,1.002523 q -0.07235,0.558105 -0.139527,1.080037 -0.03101,0.222209 -0.06201,0.45992 -0.03101,0.237712 -0.06201,0.465088 -0.02584,0.222209 -0.05684,0.428915 -0.02584,0.201538 -0.04651,0.356567 -0.04134,0.315226 -0.04651,0.54777 -0.0052,0.227376 0.02067,0.387573 0.02584,0.15503 0.07235,0.24288 0.04651,0.08785 0.103353,0.118855 0.222208,0.08785 0.418579,0.06201 0.201538,-0.02584 0.366902,-0.10852 0.170532,-0.08268 0.294556,-0.196371 0.124023,-0.113688 0.19637,-0.19637 0,-0.0052 0,-0.0052 0.0052,-0.0052 0.0052,-0.01033 0.03617,-0.304891 0.09302,-0.72347 0.05684,-0.423747 0.118855,-0.904338 0.06718,-0.480591 0.134359,-0.992187 0.06718,-0.516765 0.134359,-1.012858 h -0.0052 q 0.01034,-0.07235 0.0155,-0.09819 0.0052,-0.02067 0.0052,-0.03617 v -0.0052 q 0,-0.01034 0,-0.0155 0.0052,-0.0052 0.0052,-0.01033 0.04651,-0.165364 0.248047,-0.320394 0.206706,-0.160197 0.501262,-0.28422 0.0052,-0.0052 0.01033,-0.0052 0.0052,0 0.01034,-0.0052 0.144694,-0.06201 0.310059,-0.129192 0.170532,-0.06718 0.310058,-0.10852 0.144694,-0.04134 0.24288,-0.04651 0.103352,-0.01034 0.113688,0.04134 v 0.01034 z"
         style="font-style:italic;font-variant:normal;font-weight:normal;font-stretch:normal;font-size:10.58333302px;font-family:'Brush Lettering One';-inkscape-font-specification:'Brush Lettering One, Italic';font-variant-ligatures:normal;font-variant-caps:normal;font-variant-numeric:normal;font-feature-settings:normal;text-align:start;writing-mode:lr-tb;text-anchor:start;stroke-width:0.26458332px"
         id="path10790" />
      <path
         d="m 31.869386,14.259984 q -0.0052,-0.217041 -0.03101,-0.37207 -0.02067,-0.155029 -0.06201,-0.26355 -0.03617,-0.113688 -0.08268,-0.180867 -0.04651,-0.07235 -0.09819,-0.113688 0,0 -0.0052,-0.0052 l -0.0052,-0.0052 q -0.06718,-0.04134 -0.191203,-0.02584 -0.124023,0.0155 -0.222208,0.149862 -0.04651,0.07235 -0.103353,0.19637 -0.05168,0.124024 -0.06201,0.289388 -0.0052,0.160197 0.05168,0.3514 0.06201,0.191203 0.237711,0.392741 0.03101,0.03101 0.08268,0.09302 0.05684,0.05684 0.118855,0.124024 0.06718,0.06718 0.139527,0.134359 0.07235,0.06718 0.144694,0.118855 0.04651,0.03617 0.149861,0.118856 0.108521,0.07752 0.232544,0.211874 0.124024,0.129191 0.248047,0.315226 0.129191,0.186035 0.211874,0.434082 0.08268,0.248047 0.103352,0.558105 0.02584,0.310059 -0.05168,0.687297 -0.04134,0.155029 -0.160197,0.356567 -0.118856,0.196371 -0.320394,0.377238 -0.201538,0.180868 -0.490926,0.320394 -0.28422,0.134359 -0.661458,0.165365 -0.03617,0.0052 -0.06718,0.0052 -0.02584,0 -0.06201,0 -0.03617,0.0052 -0.06201,0 -0.01034,0 -0.0155,0 -0.0052,0.0052 -0.01034,0.0052 -0.0052,-0.0052 -0.01034,-0.0052 h -0.0052 q -0.06718,0 -0.129191,0 -0.05684,0 -0.113688,-0.01034 -0.0155,0 -0.02584,-0.0052 -0.01034,0 -0.02067,0 -0.330729,-0.04651 -0.542603,-0.186035 -0.211873,-0.144694 -0.335897,-0.335897 -0.118855,-0.191202 -0.165364,-0.408243 -0.04134,-0.222209 -0.03617,-0.41858 v -0.03617 q -0.01034,-0.09819 -0.03617,-0.144694 -0.02584,-0.04651 -0.06201,-0.05168 -0.03101,-0.01034 -0.07235,0.02067 -0.03617,0.03101 -0.07235,0.08268 v -0.01033 q 0.01033,-0.129191 0.04651,-0.248047 0.04134,-0.118856 0.113688,-0.217041 0.07235,-0.103353 0.1757,-0.170532 0.10852,-0.07235 0.253214,-0.103353 0.05168,0 0.108521,0 0.05684,0 0.113688,0.01034 0.134359,0.0155 0.232544,0.06718 0.103353,0.05168 0.170532,0.118856 0.06718,0.06718 0.09819,0.149861 0.03617,0.07751 0.03617,0.144694 v 0.01034 q 0,0.248046 0.02067,0.428914 0.02584,0.180867 0.06201,0.304891 0.03617,0.124023 0.08268,0.201538 0.05168,0.07752 0.10852,0.118856 0,0.0052 0.0052,0.0052 0,0 0.0052,0.01034 0.01034,0.0052 0.03101,0.02067 0.02584,0.01034 0.06718,0.02067 0.04134,0.01034 0.09818,0.0052 0.05684,-0.01033 0.113688,-0.04651 0.06201,-0.04134 0.118856,-0.118856 0.05684,-0.07751 0.09819,-0.217041 0.05684,-0.186035 0.03617,-0.37207 -0.0155,-0.186036 -0.08268,-0.356568 -0.06718,-0.170532 -0.1757,-0.310058 -0.103353,-0.144694 -0.222208,-0.24288 -0.118856,-0.09819 -0.310059,-0.242879 -0.191203,-0.144694 -0.377238,-0.341064 -0.180867,-0.201538 -0.325561,-0.459921 -0.139527,-0.258382 -0.15503,-0.583943 -0.02584,-0.387573 0.01034,-0.651123 0.04134,-0.268718 0.129191,-0.454753 0.08785,-0.191203 0.217041,-0.330729 0.129191,-0.139526 0.294555,-0.279053 0.08268,-0.06718 0.191203,-0.139526 0.113688,-0.07235 0.242879,-0.129191 0.129191,-0.06201 0.268718,-0.09819 0.139526,-0.04134 0.273885,-0.05168 h 0.0052 0.03101 0.0052 0.180868 0.01034 q 0.06718,0 0.129191,0.0052 0.06718,0 0.124023,0.0052 l 0.0052,0.0052 h 0.02067 0.01033 0.0052 q 0.289389,0.04134 0.485759,0.160197 0.201538,0.113688 0.325561,0.273885 0.124024,0.160197 0.180868,0.3514 0.06201,0.186035 0.07752,0.37207 0,0.02067 0.0052,0.03101 v 0.01034 0.05168 0.0052 q 0.0155,0.196371 0.09302,0.201538 0.07751,0.0052 0.149861,-0.103352 v 0.01033 q -0.01033,0.129191 -0.05168,0.248047 -0.03617,0.118856 -0.10852,0.222208 -0.07235,0.09819 -0.180868,0.170533 -0.103353,0.06718 -0.248047,0.09302 -0.05168,0.0052 -0.10852,0.0052 -0.05684,0 -0.113688,-0.01033 -0.134359,-0.0155 -0.237712,-0.06718 -0.09819,-0.05168 -0.165365,-0.118856 -0.06718,-0.07235 -0.103353,-0.144694 -0.03101,-0.07751 -0.03101,-0.149861 z"
         style="font-style:italic;font-variant:normal;font-weight:normal;font-stretch:normal;font-size:10.58333302px;font-family:'Brush Lettering One';-inkscape-font-specification:'Brush Lettering One, Italic';font-variant-ligatures:normal;font-variant-caps:normal;font-variant-numeric:normal;font-feature-settings:normal;text-align:start;writing-mode:lr-tb;text-anchor:start;stroke-width:0.26458332px"
         id="path10792" />
      <path
         d="m 37.801839,12.508153 q 0.04651,0.0155 0.08268,0.04651 0.04134,0.02584 0.05684,0.08268 0.02067,0.05168 0.0155,0.144694 0,0.09302 -0.03617,0.242879 v 0.01034 q -0.0052,0.02067 -0.0155,0.05168 -0.03101,0.07752 -0.09819,0.129192 -0.06201,0.04651 -0.139526,0.05684 l -0.03101,0.0052 q -0.0155,0.0052 -0.03617,0.0052 -0.0155,0.0052 -0.04134,0.0052 -0.02067,0 -0.05168,0.0052 -0.06718,0.01033 -0.160197,0.02067 -0.09302,0.0052 -0.206706,0.02067 -0.118856,0.01034 -0.248047,0.02584 -0.129191,0.0155 -0.273885,0.031 -0.04134,0.01034 -0.08785,0.0155 -0.04651,0 -0.08785,0.0052 l -0.527099,3.932576 q -0.02584,0.273885 0.0052,0.382406 0.03101,0.103353 0.165365,0.118856 0.08785,0.0052 0.155029,-0.02584 0.07235,-0.03101 0.08785,-0.04134 l 0.03101,-0.0155 q -0.01033,0.04134 -0.0155,0.08268 -0.0052,0.03617 -0.0155,0.07235 -0.05684,0.242879 -0.201538,0.444417 -0.139526,0.201538 -0.397908,0.320394 -0.196371,0.05684 -0.335897,0.05684 -0.134359,0 -0.206706,0 -0.06201,0 -0.232544,-0.03617 -0.170532,-0.03617 -0.3514,-0.129192 -0.1757,-0.09302 -0.304891,-0.258382 -0.129191,-0.170532 -0.10852,-0.434082 0.01034,-0.103353 0.04134,-0.335897 0.03101,-0.232543 0.07235,-0.558105 0.04134,-0.325562 0.09302,-0.72347 0.05684,-0.403076 0.113688,-0.842326 0.05684,-0.43925 0.118856,-0.894002 0.06201,-0.45992 0.118855,-0.904338 -0.01034,0 -0.02584,0.0052 -0.01034,0 -0.02067,0 -0.04134,0.01034 -0.07235,0.0155 -0.03101,0 -0.06201,0.0052 -0.03101,0.01034 -0.05684,0.0155 -0.02584,0.0052 -0.04651,0.0155 -0.0155,0.0052 -0.02584,0.0052 h -0.01034 l -0.0052,0.0052 q -0.118856,0.02584 -0.227376,-0.03617 -0.103353,-0.06718 -0.134359,-0.186035 -0.02584,-0.09818 0.0155,-0.186035 0.04134,-0.09302 0.124023,-0.144694 0.0052,0 0.01033,-0.0052 0.0052,-0.0052 0.01034,-0.0052 0.0052,0 0.0155,-0.01034 0.0155,-0.01033 0.03617,-0.02067 0.02584,-0.01034 0.05684,-0.03101 0.07751,-0.03101 0.186035,-0.07752 0.05168,-0.0155 0.108521,-0.03617 0.05684,-0.02067 0.113688,-0.03617 0.02584,-0.01033 0.05168,-0.0155 0.03101,-0.01033 0.05685,-0.02067 0.04134,-0.304891 0.07751,-0.578776 0.04134,-0.273885 0.07235,-0.496094 0.03101,-0.227376 0.05168,-0.397909 0.02067,-0.170532 0.03617,-0.268717 0.01034,-0.06718 0.0155,-0.103353 0.0052,-0.02067 0.0052,-0.03617 0.02584,-0.1757 0.242879,-0.346232 0.217041,-0.170533 0.5271,-0.304891 0.155029,-0.06718 0.335896,-0.139527 0.180868,-0.07235 0.335897,-0.113688 0.155029,-0.04651 0.253215,-0.04651 0.09819,-0.0052 0.08785,0.06718 l -0.139527,1.018025 -0.19637,1.462443 q 0.511596,-0.05684 0.842326,-0.08268 0.335896,-0.03101 0.408243,-0.0052 z"
         style="font-style:italic;font-variant:normal;font-weight:normal;font-stretch:normal;font-size:10.58333302px;font-family:'Brush Lettering One';-inkscape-font-specification:'Brush Lettering One, Italic';font-variant-ligatures:normal;font-variant-caps:normal;font-variant-numeric:normal;font-feature-settings:normal;text-align:start;writing-mode:lr-tb;text-anchor:start;stroke-width:0.26458332px"
         id="path10794" />
      <path
         d="m 39.626018,11.624486 q -0.149862,0 -0.284221,-0.06201 -0.129191,-0.06201 -0.227376,-0.165365 -0.09819,-0.103353 -0.155029,-0.237711 -0.05685,-0.134359 -0.05168,-0.279053 0.0052,-0.180868 0.07751,-0.335897 0.07235,-0.160197 0.191203,-0.279053 0.118855,-0.118855 0.273885,-0.186035 0.160197,-0.07235 0.341064,-0.07235 0.1757,0 0.320394,0.06201 0.144694,0.05684 0.242879,0.160197 0.09819,0.09819 0.144694,0.227376 0.05168,0.124024 0.04651,0.26355 -0.0052,0.180867 -0.07235,0.346232 -0.06201,0.165365 -0.180868,0.289388 -0.118855,0.124023 -0.289388,0.19637 -0.165364,0.07235 -0.377237,0.07235 z m 0.759643,6.201172 q -0.02067,0.237712 -0.134359,0.45992 -0.07235,0.144694 -0.191202,0.26355 -0.113689,0.113688 -0.279053,0.196371 -0.248047,0.08785 -0.413412,0.09302 -0.160197,0.0052 -0.242879,0.0052 -0.04134,0 -0.134359,-0.0155 -0.09302,-0.0155 -0.206705,-0.05168 -0.113688,-0.03101 -0.237712,-0.09302 -0.118856,-0.06201 -0.217041,-0.155029 -0.09302,-0.09819 -0.149862,-0.227377 -0.05684,-0.129191 -0.04134,-0.304891 0.01034,-0.09818 0.03617,-0.315226 0.03101,-0.222208 0.07235,-0.532267 0.04134,-0.310059 0.08785,-0.687297 0.05168,-0.382405 0.103353,-0.800984 0.05684,-0.418579 0.113688,-0.857829 0.06201,-0.43925 0.118856,-0.868164 0.0052,-0.02584 0.0052,-0.04651 0,-0.02067 0,-0.04651 0.01033,-0.170532 -0.03101,-0.237711 -0.03617,-0.07235 -0.149861,-0.08268 -0.08785,0 -0.15503,0.031 -0.06718,0.02584 -0.08268,0.03617 -0.03617,0.0155 -0.07235,0.04134 -0.03617,0.02067 -0.06201,0.03617 0.0155,-0.118856 0.04651,-0.227377 0.03101,-0.113688 0.08785,-0.217041 0.118856,-0.237711 0.361735,-0.397908 0.248047,-0.165365 0.645955,-0.186035 h 0.09302 0.0052 0.02584 q 0.05168,0 0.19637,0.03101 0.144694,0.02584 0.310059,0.103353 0.155029,0.07235 0.28422,0.191203 0.134359,0.118856 0.1757,0.310059 0.02584,0.09302 0.0155,0.211873 -0.0052,0.03617 -0.01034,0.08785 -0.0052,0.04651 -0.0155,0.113688 0,0.02067 -0.0052,0.03101 0,0.03617 -0.0052,0.05684 h 0.0052 l -0.496093,3.694865 q -0.01034,0.134359 -0.01034,0.227376 0,0.08785 0.0155,0.144694 0.02067,0.05684 0.05684,0.08785 0.04134,0.02584 0.108521,0.03101 0.08785,0.0052 0.155029,-0.02067 0.06718,-0.03101 0.08268,-0.04134 0.03101,-0.0155 0.06718,-0.04134 0.03617,-0.02584 0.06201,-0.04134 z"
         style="font-style:italic;font-variant:normal;font-weight:normal;font-stretch:normal;font-size:10.58333302px;font-family:'Brush Lettering One';-inkscape-font-specification:'Brush Lettering One, Italic';font-variant-ligatures:normal;font-variant-caps:normal;font-variant-numeric:normal;font-feature-settings:normal;text-align:start;writing-mode:lr-tb;text-anchor:start;stroke-width:0.26458332px"
         id="path10796" />
      <path
         d="m 46.736695,17.804988 q 0.04134,-0.02067 0.05168,-0.03101 -0.02584,0.279052 -0.1757,0.527099 -0.144694,0.24288 -0.444418,0.372071 -0.160197,0.05168 -0.294555,0.06718 -0.134359,0.02067 -0.24288,0.01033 -0.537434,-0.05684 -0.769978,-0.28422 -0.232544,-0.227376 -0.217041,-0.542603 0,-0.01034 0.0155,-0.144694 0.02067,-0.139526 0.04651,-0.361735 0.03101,-0.222208 0.06718,-0.506429 0.04134,-0.28422 0.08268,-0.583943 0.04134,-0.299724 0.07751,-0.594279 0.04134,-0.294556 0.07235,-0.537435 0.03101,-0.248047 0.05168,-0.418579 0.02067,-0.170532 0.02584,-0.227377 0.03101,-0.475423 -0.124023,-0.687296 -0.155029,-0.211873 -0.43925,-0.217041 -0.186035,0 -0.356567,0.08268 -0.170532,0.08268 -0.330729,0.242879 -0.15503,0.15503 -0.304891,0.382406 -0.144694,0.222209 -0.284221,0.501261 v 0.0052 q -0.01033,0.02067 -0.01033,0.03101 l -0.37207,2.764689 q -0.0052,0.04651 -0.0155,0.08268 -0.0052,0.02067 -0.0052,0.03101 -0.02584,0.165365 -0.227376,0.330729 -0.19637,0.160197 -0.485759,0.289388 -0.144694,0.06201 -0.315226,0.134359 -0.170532,0.07235 -0.315226,0.118856 -0.139526,0.04134 -0.232544,0.04134 -0.09302,0.0052 -0.08268,-0.06718 l 0.129191,-0.961182 h -0.0052 l 0.341065,-2.78536 0.103353,-0.780314 q 0.01033,-0.04651 0.01033,-0.08785 0,-0.04134 0.0052,-0.07751 0.0052,-0.165365 -0.03617,-0.232544 -0.03617,-0.06718 -0.144694,-0.07752 -0.08268,-0.0052 -0.149862,0.02584 -0.06201,0.02584 -0.08268,0.03617 -0.05168,0.02584 -0.09819,0.05684 -0.02584,0.02067 -0.05168,0.03617 h -0.0052 v -0.0155 q 0.02584,-0.273885 0.155029,-0.496093 0.07235,-0.124024 0.1757,-0.222209 0.10852,-0.103353 0.258382,-0.1757 0.248047,-0.09819 0.413411,-0.103353 0.170533,-0.0052 0.253215,-0.0052 0.03617,0 0.124023,0.0155 0.09302,0.0155 0.201539,0.05168 0.113688,0.03101 0.227376,0.09302 0.118856,0.06201 0.211873,0.155029 0.09819,0.08785 0.149862,0.217041 0.05684,0.124023 0.04134,0.294556 -0.0052,0.031 -0.01033,0.08268 0,0.04651 -0.01034,0.103353 0.268718,-0.3514 0.532268,-0.54777 0.268717,-0.201539 0.527099,-0.299724 0.258382,-0.103353 0.506429,-0.124023 0.253215,-0.02584 0.485759,-0.02584 0.428914,-0.0052 0.692464,0.129191 0.268717,0.129191 0.413411,0.330729 0.144694,0.19637 0.180868,0.434082 0.04134,0.232544 0.0155,0.43925 -0.124024,0.904337 -0.217041,1.622639 -0.04134,0.304891 -0.08268,0.604615 -0.03617,0.294555 -0.07235,0.532267 -0.031,0.237712 -0.05168,0.392741 -0.02067,0.149861 -0.02067,0.170532 -0.0052,0.04134 -0.01034,0.103353 -0.0052,0.05684 -0.0052,0.113688 0.0052,0.05684 0.0155,0.108521 0.01034,0.05168 0.03617,0.07751 0.09302,0.08785 0.19637,0.05684 0.103353,-0.03101 0.206706,-0.07751 z"
         style="font-style:italic;font-variant:normal;font-weight:normal;font-stretch:normal;font-size:10.58333302px;font-family:'Brush Lettering One';-inkscape-font-specification:'Brush Lettering One, Italic';font-variant-ligatures:normal;font-variant-caps:normal;font-variant-numeric:normal;font-feature-settings:normal;text-align:start;writing-mode:lr-tb;text-anchor:start;stroke-width:0.26458332px"
         id="path10798" />
      <path
         d="m 50.715781,18.223567 q 0.155029,-0.754476 0.273885,-1.591634 0.124023,-0.842326 0.227376,-1.715658 0.103353,-0.873332 0.19637,-1.756999 0.09302,-0.883666 0.191203,-1.725992 l -0.759643,-0.129191 0.07235,-0.542603 h 2.971394 l -0.05684,0.542603 -0.83199,0.124023 q -0.09302,0.795817 -0.180868,1.581299 -0.08785,0.780314 -0.1757,1.503784 -0.08268,0.718302 -0.160197,1.353922 -0.07751,0.630453 -0.144694,1.126547 -0.06718,0.496093 -0.124023,0.83199 -0.05684,0.330729 -0.09819,0.454753 -0.165365,0.490926 -0.470256,0.862996 -0.299723,0.377238 -0.692464,0.640788 -0.387573,0.268717 -0.842326,0.434082 -0.454752,0.165365 -0.91984,0.232544 L 48.96395,19.944392 q 0.387573,-0.113688 0.692464,-0.304891 0.299723,-0.186035 0.516764,-0.418579 0.217041,-0.227376 0.3514,-0.485759 0.139526,-0.258382 0.191203,-0.511596 z"
         style="font-style:italic;font-variant:normal;font-weight:normal;font-stretch:normal;font-size:10.58333302px;font-family:'Brush Lettering One';-inkscape-font-specification:'Brush Lettering One, Italic';font-variant-ligatures:normal;font-variant-caps:normal;font-variant-numeric:normal;font-feature-settings:normal;text-align:start;writing-mode:lr-tb;text-anchor:start;stroke-width:0.26458332px"
         id="path10800" />
      <path
         d="m 54.09025,18.037532 q 0.01034,-0.201539 0.09302,-0.366903 0.08268,-0.165365 0.206706,-0.28422 0.129191,-0.118856 0.28422,-0.180868 0.160197,-0.06718 0.320394,-0.06718 0.186035,0 0.320394,0.06201 0.134358,0.06201 0.217041,0.165365 0.08785,0.09819 0.124023,0.232544 0.03617,0.134359 0.03101,0.279053 -0.01034,0.217041 -0.09819,0.387573 -0.08785,0.165364 -0.222209,0.279053 -0.134359,0.113688 -0.299723,0.170532 -0.165365,0.06201 -0.335897,0.06201 -0.139526,0 -0.26355,-0.05684 -0.118856,-0.05168 -0.206705,-0.144694 -0.08785,-0.09819 -0.134359,-0.232544 -0.04651,-0.139526 -0.03617,-0.30489 z"
         style="font-style:italic;font-variant:normal;font-weight:normal;font-stretch:normal;font-size:10.58333302px;font-family:'Brush Lettering One';-inkscape-font-specification:'Brush Lettering One, Italic';font-variant-ligatures:normal;font-variant-caps:normal;font-variant-numeric:normal;font-feature-settings:normal;text-align:start;writing-mode:lr-tb;text-anchor:start;stroke-width:0.26458332px"
         id="path10802" />
      <path
         d="m 58.699789,18.166723 0.883667,-0.149862 1.632976,-6.583577 -0.914673,-0.129191 0.07235,-0.542603 h 2.904215 l 0.72347,4.935099 0.09302,0.873332 0.273885,-0.873332 q 0.07235,-0.170532 0.180867,-0.434082 0.113688,-0.26355 0.248047,-0.589111 0.139527,-0.330729 0.294556,-0.697632 0.160197,-0.37207 0.320394,-0.749308 0.160197,-0.377238 0.315226,-0.744141 0.160197,-0.37207 0.294556,-0.697632 0.139526,-0.325561 0.248046,-0.589111 0.113689,-0.26355 0.186036,-0.434082 h 2.676839 l -0.06201,0.542603 -0.904338,0.129191 -0.165364,6.578409 0.91984,0.15503 -0.04134,0.501261 h -3.260783 l 0.04651,-0.506429 0.888835,-0.144694 0.28422,-4.573364 0.09302,-1.912028 -0.661459,1.663981 -2.371948,5.488037 -0.718302,0.07752 -0.873332,-5.441529 -0.253214,-1.793172 -0.382406,1.844849 -1.023193,4.645711 1.023193,0.149862 -0.05168,0.501261 h -2.976563 z"
         style="font-style:italic;font-variant:normal;font-weight:normal;font-stretch:normal;font-size:10.58333302px;font-family:'Brush Lettering One';-inkscape-font-specification:'Brush Lettering One, Italic';font-variant-ligatures:normal;font-variant-caps:normal;font-variant-numeric:normal;font-feature-settings:normal;text-align:start;writing-mode:lr-tb;text-anchor:start;stroke-width:0.26458332px"
         id="path10804" />
      <path
         d="m 74.59029,17.520767 q -0.02584,0.268718 0.0052,0.372071 0.03101,0.09818 0.165365,0.113688 0.08268,0.0052 0.149861,-0.02067 0.06718,-0.03101 0.08785,-0.04134 0.02067,-0.01034 0.04651,-0.02584 0.02584,-0.02067 0.05168,-0.03617 0.02584,-0.02067 0.05168,-0.03617 -0.02584,0.268717 -0.149862,0.496093 -0.124023,0.217042 -0.356567,0.361736 -0.227376,0.149861 -0.583944,0.175699 -0.05684,0.0052 -0.103353,0 -0.04134,0 -0.07751,0 -0.03617,0 -0.118856,-0.0155 -0.08268,-0.01033 -0.186035,-0.04134 -0.103353,-0.03101 -0.217041,-0.08268 -0.113688,-0.05168 -0.211873,-0.129191 -0.09302,-0.08268 -0.160197,-0.191203 -0.06718,-0.10852 -0.07752,-0.258382 -0.26355,0.258382 -0.568441,0.403076 -0.304891,0.144694 -0.620117,0.191203 -0.310059,0.04651 -0.614949,0.0052 -0.299724,-0.04134 -0.552938,-0.149862 -0.325562,-0.144694 -0.537435,-0.434082 -0.211874,-0.289388 -0.325562,-0.666626 -0.10852,-0.382406 -0.118855,-0.821655 -0.01034,-0.43925 0.06201,-0.8785 0.07752,-0.444417 0.232544,-0.857828 0.160197,-0.418579 0.392741,-0.754476 0.242879,-0.3514 0.516764,-0.599447 0.273885,-0.253214 0.563273,-0.423747 0.289388,-0.170532 0.583944,-0.268717 0.294556,-0.09819 0.583944,-0.139526 0.01033,0 0.02067,0 0.0155,-0.0052 0.03101,-0.0052 0.217041,-0.03101 0.434082,-0.03101 h 0.0155 q 0.397909,-0.0052 0.744141,0.07235 0.351399,0.07235 0.625285,0.186035 0.144694,-0.06201 0.299723,-0.118856 0.155029,-0.06201 0.279053,-0.09302 0.124023,-0.03101 0.201538,-0.02584 0.07751,0.0052 0.06718,0.06718 l -0.201538,1.514119 -0.04134,0.3514 z m -1.850017,0.08785 q 0.129191,-0.113688 0.253215,-0.28422 0.04134,-0.299723 0.08785,-0.651123 0.04651,-0.356568 0.09302,-0.713135 0.05168,-0.356567 0.09819,-0.692464 0.04651,-0.335897 0.08268,-0.599447 l 0.03617,-0.356567 q 0.02067,-0.144694 0.03617,-0.258382 0.0155,-0.118856 0.02584,-0.201538 0.0155,-0.09302 0.02584,-0.170533 0.0155,-0.06718 0.06201,-0.149861 -0.165365,-0.04651 -0.289388,-0.07235 -0.124023,-0.02584 -0.248047,-0.02067 h -0.0052 -0.02067 q -0.09819,0.0052 -0.206706,0.02067 -0.103353,0.0155 -0.237711,0.05684 -0.1757,0.07235 -0.320394,0.191203 -0.144694,0.118855 -0.26355,0.279052 -0.113688,0.15503 -0.206706,0.346232 -0.08785,0.186036 -0.155029,0.392741 -0.108521,0.341065 -0.165365,0.692465 -0.05684,0.351399 -0.07751,0.671793 -0.0155,0.320394 -0.0052,0.589111 0.01033,0.26355 0.04134,0.423747 0.07752,0.37207 0.232544,0.558106 0.160197,0.180867 0.3514,0.222208 0.19637,0.03617 0.397908,-0.04134 0.206706,-0.08268 0.377238,-0.232544 z"
         style="font-style:italic;font-variant:normal;font-weight:normal;font-stretch:normal;font-size:10.58333302px;font-family:'Brush Lettering One';-inkscape-font-specification:'Brush Lettering One, Italic';font-variant-ligatures:normal;font-variant-caps:normal;font-variant-numeric:normal;font-feature-settings:normal;text-align:start;writing-mode:lr-tb;text-anchor:start;stroke-width:0.26458332px"
         id="path10806" />
      <path
         d="m 80.326372,14.911107 q -0.05168,0.196371 -0.19637,0.356568 -0.139526,0.160197 -0.403076,0.217041 -0.113688,0.0155 -0.196371,0.0155 -0.08268,0 -0.134358,0 -0.05168,0 -0.186036,-0.02584 -0.134358,-0.02584 -0.289388,-0.09302 -0.149861,-0.06718 -0.289388,-0.180867 -0.134358,-0.118856 -0.180867,-0.304891 -0.03101,-0.09302 -0.02067,-0.232544 0.01034,-0.06201 0.02067,-0.1757 0.0155,-0.118856 0.03617,-0.279053 0.0052,-0.02067 0.0052,-0.03617 0,-0.02067 0.0052,-0.04134 0.01033,-0.04134 0.01033,-0.08268 0.0052,-0.04134 0.01033,-0.08785 0.0052,-0.01033 0.0052,-0.03101 v -0.0155 q 0.02584,-0.144694 -0.09302,-0.05684 -0.0052,0 -0.0155,0.01034 -0.149861,0.113688 -0.279052,0.268717 -0.129191,0.155029 -0.222209,0.366903 l -0.377238,2.8267 q -0.0052,0.01034 -0.0052,0.03101 -0.0052,0.03101 -0.0052,0.06201 0,0.02584 0,0.05168 -0.0052,0.165365 0.03101,0.237712 0.03617,0.06718 0.144694,0.07751 0.08268,0.0052 0.144694,-0.02067 0.06718,-0.03101 0.08268,-0.04134 0.04134,-0.02584 0.08268,-0.05168 0.04651,-0.03101 0.06201,-0.04134 v 0.0155 q -0.02584,0.26355 -0.144694,0.480591 -0.07751,0.139526 -0.201538,0.258382 -0.118856,0.113688 -0.289388,0.186035 -0.217041,0.07752 -0.366903,0.08268 -0.149861,0 -0.222208,0 -0.05685,0 -0.196371,-0.02584 -0.139526,-0.03101 -0.294556,-0.103353 -0.149861,-0.07235 -0.273885,-0.191203 -0.124023,-0.118856 -0.165364,-0.299723 -0.02067,-0.09819 -0.0155,-0.211874 0.0052,-0.03617 0.01034,-0.08268 0.0052,-0.05168 0.0155,-0.113688 v -0.03101 q 0.0052,-0.01034 0.0052,-0.02067 l 0.454752,-3.756876 q 0.01034,-0.160197 -0.03101,-0.227376 -0.04134,-0.06718 -0.149861,-0.07752 -0.08268,-0.0052 -0.149862,0.02584 -0.06201,0.03101 -0.08268,0.04134 -0.02584,0.01034 -0.05168,0.03101 -0.02584,0.0155 -0.05168,0.03101 0.0155,-0.206706 0.103353,-0.397909 0.08785,-0.180867 0.237711,-0.325561 0.149862,-0.149862 0.382406,-0.227376 0.180868,-0.04651 0.299723,-0.04651 0.124024,0 0.191203,0 0.05684,0 0.196371,0.03101 0.144694,0.02584 0.30489,0.09818 0.149862,0.07235 0.279053,0.191203 0.134359,0.118855 0.1757,0.304891 0.01033,0.04651 0.0155,0.09819 0.0052,0.05168 -0.0052,0.10852 0,0.0155 -0.0052,0.03101 0,0.0155 0,0.03617 0.232544,-0.253215 0.45992,-0.423747 0.232544,-0.170532 0.444417,-0.268717 0.217041,-0.103353 0.408244,-0.144694 0.19637,-0.04651 0.361735,-0.05168 0.124024,-0.0052 0.227376,0.0155 0.108521,0.0155 0.186036,0.04651 0.155029,0.03101 0.139526,0.160197 l -0.04134,0.335897 -0.09302,0.671793 -0.10852,0.697632 -0.02067,0.139526 q -0.01033,0.149862 0.0052,0.206706 0.0155,0.05168 0.08785,0.06201 0.04651,0.0052 0.08268,-0.01034 0.04134,-0.0155 0.05168,-0.02584 v 0.0052 q 0.01034,-0.01033 0.02584,-0.0155 0.0155,-0.01033 0.02584,-0.02067 l 0.03101,-0.02067 z"
         style="font-style:italic;font-variant:normal;font-weight:normal;font-stretch:normal;font-size:10.58333302px;font-family:'Brush Lettering One';-inkscape-font-specification:'Brush Lettering One, Italic';font-variant-ligatures:normal;font-variant-caps:normal;font-variant-numeric:normal;font-feature-settings:normal;text-align:start;writing-mode:lr-tb;text-anchor:start;stroke-width:0.26458332px"
         id="path10808" />
      <path
         d="m 84.484851,12.508153 q 0.04651,0.0155 0.08268,0.04651 0.04134,0.02584 0.05684,0.08268 0.02067,0.05168 0.0155,0.144694 0,0.09302 -0.03617,0.242879 v 0.01034 q -0.0052,0.02067 -0.0155,0.05168 -0.03101,0.07752 -0.09819,0.129192 -0.06201,0.04651 -0.139526,0.05684 l -0.03101,0.0052 q -0.0155,0.0052 -0.03617,0.0052 -0.0155,0.0052 -0.04134,0.0052 -0.02067,0 -0.05168,0.0052 -0.06718,0.01033 -0.160197,0.02067 -0.09302,0.0052 -0.206706,0.02067 -0.118856,0.01034 -0.248047,0.02584 -0.129191,0.0155 -0.273885,0.031 -0.04134,0.01034 -0.08785,0.0155 -0.04651,0 -0.08785,0.0052 l -0.527099,3.932576 q -0.02584,0.273885 0.0052,0.382406 0.03101,0.103353 0.165365,0.118856 0.08785,0.0052 0.155029,-0.02584 0.07235,-0.03101 0.08785,-0.04134 l 0.03101,-0.0155 q -0.01034,0.04134 -0.0155,0.08268 -0.0052,0.03617 -0.0155,0.07235 -0.05684,0.242879 -0.201538,0.444417 -0.139526,0.201538 -0.397908,0.320394 -0.196371,0.05684 -0.335897,0.05684 -0.134359,0 -0.206706,0 -0.06201,0 -0.232544,-0.03617 -0.170532,-0.03617 -0.3514,-0.129192 -0.1757,-0.09302 -0.304891,-0.258382 -0.129191,-0.170532 -0.10852,-0.434082 0.01033,-0.103353 0.04134,-0.335897 0.03101,-0.232543 0.07235,-0.558105 0.04134,-0.325562 0.09302,-0.72347 0.05684,-0.403076 0.113688,-0.842326 0.05684,-0.43925 0.118856,-0.894002 0.06201,-0.45992 0.118855,-0.904338 -0.01033,0 -0.02584,0.0052 -0.01034,0 -0.02067,0 -0.04134,0.01034 -0.07235,0.0155 -0.03101,0 -0.06201,0.0052 -0.03101,0.01034 -0.05684,0.0155 -0.02584,0.0052 -0.04651,0.0155 -0.0155,0.0052 -0.02584,0.0052 h -0.01034 l -0.0052,0.0052 q -0.118856,0.02584 -0.227376,-0.03617 -0.103353,-0.06718 -0.134359,-0.186035 -0.02584,-0.09818 0.0155,-0.186035 0.04134,-0.09302 0.124023,-0.144694 0.0052,0 0.01033,-0.0052 0.0052,-0.0052 0.01034,-0.0052 0.0052,0 0.0155,-0.01034 0.0155,-0.01033 0.03617,-0.02067 0.02584,-0.01034 0.05684,-0.03101 0.07751,-0.03101 0.186035,-0.07752 0.05168,-0.0155 0.108521,-0.03617 0.05684,-0.02067 0.113688,-0.03617 0.02584,-0.01033 0.05168,-0.0155 0.03101,-0.01033 0.05684,-0.02067 0.04134,-0.304891 0.07751,-0.578776 0.04134,-0.273885 0.07235,-0.496094 0.03101,-0.227376 0.05168,-0.397909 0.02067,-0.170532 0.03617,-0.268717 0.01033,-0.06718 0.0155,-0.103353 0.0052,-0.02067 0.0052,-0.03617 0.02584,-0.1757 0.242879,-0.346232 0.217041,-0.170533 0.5271,-0.304891 0.155029,-0.06718 0.335896,-0.139527 0.180868,-0.07235 0.335897,-0.113688 0.155029,-0.04651 0.253215,-0.04651 0.09819,-0.0052 0.08785,0.06718 l -0.139527,1.018025 -0.19637,1.462443 q 0.511596,-0.05684 0.842326,-0.08268 0.335896,-0.03101 0.408243,-0.0052 z"
         style="font-style:italic;font-variant:normal;font-weight:normal;font-stretch:normal;font-size:10.58333302px;font-family:'Brush Lettering One';-inkscape-font-specification:'Brush Lettering One, Italic';font-variant-ligatures:normal;font-variant-caps:normal;font-variant-numeric:normal;font-feature-settings:normal;text-align:start;writing-mode:lr-tb;text-anchor:start;stroke-width:0.26458332px"
         id="path10810" />
      <path
         d="m 86.30903,11.624486 q -0.149862,0 -0.284221,-0.06201 -0.129191,-0.06201 -0.227376,-0.165365 -0.09819,-0.103353 -0.155029,-0.237711 -0.05684,-0.134359 -0.05168,-0.279053 0.0052,-0.180868 0.07752,-0.335897 0.07235,-0.160197 0.191203,-0.279053 0.118855,-0.118855 0.273885,-0.186035 0.160197,-0.07235 0.341064,-0.07235 0.1757,0 0.320394,0.06201 0.144694,0.05684 0.242879,0.160197 0.09819,0.09819 0.144694,0.227376 0.05168,0.124024 0.04651,0.26355 -0.0052,0.180867 -0.07235,0.346232 -0.06201,0.165365 -0.180868,0.289388 -0.118855,0.124023 -0.289388,0.19637 -0.165364,0.07235 -0.377237,0.07235 z m 0.759643,6.201172 q -0.02067,0.237712 -0.134359,0.45992 -0.07235,0.144694 -0.191202,0.26355 -0.113689,0.113688 -0.279053,0.196371 -0.248047,0.08785 -0.413412,0.09302 -0.160197,0.0052 -0.242879,0.0052 -0.04134,0 -0.134359,-0.0155 -0.09302,-0.0155 -0.206705,-0.05168 -0.113688,-0.03101 -0.237712,-0.09302 -0.118856,-0.06201 -0.217041,-0.155029 -0.09302,-0.09819 -0.149862,-0.227377 -0.05684,-0.129191 -0.04134,-0.304891 0.01034,-0.09818 0.03617,-0.315226 0.03101,-0.222208 0.07235,-0.532267 0.04134,-0.310059 0.08785,-0.687297 0.05168,-0.382405 0.103353,-0.800984 0.05684,-0.418579 0.113688,-0.857829 0.06201,-0.43925 0.118856,-0.868164 0.0052,-0.02584 0.0052,-0.04651 0,-0.02067 0,-0.04651 0.01033,-0.170532 -0.03101,-0.237711 -0.03617,-0.07235 -0.149861,-0.08268 -0.08785,0 -0.15503,0.031 -0.06718,0.02584 -0.08268,0.03617 -0.03617,0.0155 -0.07235,0.04134 -0.03617,0.02067 -0.06201,0.03617 0.0155,-0.118856 0.04651,-0.227377 0.03101,-0.113688 0.08785,-0.217041 0.118856,-0.237711 0.361735,-0.397908 0.248047,-0.165365 0.645955,-0.186035 h 0.09302 0.0052 0.02584 q 0.05168,0 0.19637,0.03101 0.144694,0.02584 0.310059,0.103353 0.155029,0.07235 0.28422,0.191203 0.134359,0.118856 0.1757,0.310059 0.02584,0.09302 0.0155,0.211873 -0.0052,0.03617 -0.01033,0.08785 -0.0052,0.04651 -0.0155,0.113688 0,0.02067 -0.0052,0.03101 0,0.03617 -0.0052,0.05684 h 0.0052 l -0.496093,3.694865 q -0.01034,0.134359 -0.01034,0.227376 0,0.08785 0.0155,0.144694 0.02067,0.05684 0.05684,0.08785 0.04134,0.02584 0.108521,0.03101 0.08785,0.0052 0.155029,-0.02067 0.06718,-0.03101 0.08268,-0.04134 0.03101,-0.0155 0.06718,-0.04134 0.03617,-0.02584 0.06201,-0.04134 z"
         style="font-style:italic;font-variant:normal;font-weight:normal;font-stretch:normal;font-size:10.58333302px;font-family:'Brush Lettering One';-inkscape-font-specification:'Brush Lettering One, Italic';font-variant-ligatures:normal;font-variant-caps:normal;font-variant-numeric:normal;font-feature-settings:normal;text-align:start;writing-mode:lr-tb;text-anchor:start;stroke-width:0.26458332px"
         id="path10812" />
      <path
         d="m 93.419701,17.804988 q 0.04134,-0.02067 0.05168,-0.03101 -0.02584,0.279052 -0.1757,0.527099 -0.144694,0.24288 -0.444417,0.372071 -0.160197,0.05168 -0.294556,0.06718 -0.134359,0.02067 -0.242879,0.01033 -0.537435,-0.05684 -0.769979,-0.28422 -0.232544,-0.227376 -0.217041,-0.542603 0,-0.01034 0.0155,-0.144694 0.02067,-0.139526 0.04651,-0.361735 0.03101,-0.222208 0.06718,-0.506429 0.04134,-0.28422 0.08268,-0.583943 0.04134,-0.299724 0.07751,-0.594279 0.04134,-0.294556 0.07235,-0.537435 0.03101,-0.248047 0.05168,-0.418579 0.02067,-0.170532 0.02584,-0.227377 0.031,-0.475423 -0.124024,-0.687296 -0.155029,-0.211873 -0.439249,-0.217041 -0.186036,0 -0.356568,0.08268 -0.170532,0.08268 -0.330729,0.242879 -0.155029,0.15503 -0.304891,0.382406 -0.144694,0.222209 -0.28422,0.501261 v 0.0052 q -0.01034,0.02067 -0.01034,0.03101 l -0.37207,2.764689 q -0.0052,0.04651 -0.0155,0.08268 -0.0052,0.02067 -0.0052,0.03101 -0.02584,0.165365 -0.227377,0.330729 -0.19637,0.160197 -0.485758,0.289388 -0.144694,0.06201 -0.315226,0.134359 -0.170533,0.07235 -0.315227,0.118856 -0.139526,0.04134 -0.232544,0.04134 -0.09302,0.0052 -0.08268,-0.06718 l 0.129191,-0.961182 h -0.0052 l 0.341064,-2.78536 0.103353,-0.780314 q 0.01034,-0.04651 0.01034,-0.08785 0,-0.04134 0.0052,-0.07751 0.0052,-0.165365 -0.03617,-0.232544 -0.03617,-0.06718 -0.144694,-0.07752 -0.08268,-0.0052 -0.149861,0.02584 -0.06201,0.02584 -0.08268,0.03617 -0.05168,0.02584 -0.09819,0.05684 -0.02584,0.02067 -0.05168,0.03617 h -0.0052 v -0.0155 q 0.02584,-0.273885 0.155029,-0.496093 0.07235,-0.124024 0.1757,-0.222209 0.108521,-0.103353 0.258382,-0.1757 0.248047,-0.09819 0.413412,-0.103353 0.170532,-0.0052 0.253214,-0.0052 0.03617,0 0.124024,0.0155 0.09302,0.0155 0.201538,0.05168 0.113688,0.03101 0.227376,0.09302 0.118856,0.06201 0.211873,0.155029 0.09819,0.08785 0.149862,0.217041 0.05684,0.124023 0.04134,0.294556 -0.0052,0.031 -0.01033,0.08268 0,0.04651 -0.01034,0.103353 0.268717,-0.3514 0.532267,-0.54777 0.268717,-0.201539 0.5271,-0.299724 0.258382,-0.103353 0.506429,-0.124023 0.253214,-0.02584 0.485758,-0.02584 0.428914,-0.0052 0.692464,0.129191 0.268718,0.129191 0.413412,0.330729 0.144694,0.19637 0.180867,0.434082 0.04134,0.232544 0.0155,0.43925 -0.124023,0.904337 -0.217041,1.622639 -0.04134,0.304891 -0.08268,0.604615 -0.03617,0.294555 -0.07235,0.532267 -0.03101,0.237712 -0.05168,0.392741 -0.02067,0.149861 -0.02067,0.170532 -0.0052,0.04134 -0.01034,0.103353 -0.0052,0.05684 -0.0052,0.113688 0.0052,0.05684 0.0155,0.108521 0.01033,0.05168 0.03617,0.07751 0.09302,0.08785 0.196371,0.05684 0.103353,-0.03101 0.206705,-0.07751 z"
         style="font-style:italic;font-variant:normal;font-weight:normal;font-stretch:normal;font-size:10.58333302px;font-family:'Brush Lettering One';-inkscape-font-specification:'Brush Lettering One, Italic';font-variant-ligatures:normal;font-variant-caps:normal;font-variant-numeric:normal;font-feature-settings:normal;text-align:start;writing-mode:lr-tb;text-anchor:start;stroke-width:0.26458332px"
         id="path10814" />
    </g>
  </g>
</svg>
